<svg width="532" height="591" viewBox="0 0 532 591" fill="none" xmlns="http://www.w3.org/2000/svg">
<g id="2. Send email for subscribing">
<g id="Email 3">
<g id="Group 6">
<path id="Rectangle" fill-rule="evenodd" clip-rule="evenodd" d="M230.601 58.7765C230.601 56.922 231.458 55.1717 232.924 54.0352L295.247 5.70302C299.575 2.34653 305.626 2.34653 309.954 5.70301L372.278 54.0352C373.743 55.1717 374.601 56.922 374.601 58.7765V146C374.601 149.314 371.914 152 368.601 152H236.601C233.287 152 230.601 149.314 230.601 146V58.7765Z" fill="#E5E9F3"/>
</g>
<path id="Path 100" fill-rule="evenodd" clip-rule="evenodd" d="M256.782 9.60925V75.1268L280.7 85.3459C283.805 86.6725 287.147 87.3564 290.523 87.3564H314.486C317.855 87.3564 321.188 86.6756 324.287 85.355L348.419 75.071V9.60925L256.782 9.60925Z" fill="white" stroke="#19243D" stroke-linecap="round"/>
<rect id="Rectangle_2" x="266.382" y="20.0919" width="13.0909" height="13.1034" fill="#C7DBFF"/>
<rect id="Rectangle_3" x="266.382" y="44.5518" width="46.2545" height="4.36782" fill="#19243D"/>
<path id="Path 100_2" d="M230.601 63.7701L280.633 85.3175C283.756 86.6626 287.121 87.3563 290.522 87.3563H314.552C317.944 87.3563 321.302 86.6658 324.419 85.3267L374.601 63.7701" stroke="#19243D" stroke-linecap="round"/>
<path id="Combined Shape" fill-rule="evenodd" clip-rule="evenodd" d="M351.206 141.517H326.04H322.48C322.231 141.517 322.061 141.264 322.156 141.033L322.388 140.471C322.703 139.706 322.712 138.849 322.412 138.078L322.38 137.997C322.108 137.296 322.109 136.519 322.383 135.82L322.522 135.463C322.749 134.884 322.714 134.235 322.427 133.684C322.129 133.113 322.103 132.438 322.356 131.846L322.445 131.635C322.722 130.986 322.718 130.251 322.435 129.605L322.397 129.519C322.118 128.883 322.133 128.156 322.44 127.533C322.721 126.962 322.759 126.303 322.546 125.704L322.14 124.563C322.051 124.311 322.237 124.046 322.505 124.046H326.04H351.206H354.741C355.008 124.046 355.195 124.311 355.105 124.563L354.699 125.704C354.486 126.303 354.524 126.962 354.805 127.533C355.112 128.156 355.128 128.883 354.848 129.519L354.811 129.605C354.527 130.251 354.523 130.986 354.8 131.635L354.89 131.846C355.142 132.438 355.116 133.113 354.819 133.684C354.531 134.235 354.496 134.884 354.723 135.463L354.863 135.82C355.137 136.519 355.138 137.296 354.865 137.997L354.834 138.078C354.534 138.849 354.542 139.706 354.858 140.471L355.089 141.033C355.184 141.264 355.015 141.517 354.765 141.517H351.206Z" fill="#2760CB"/>
<rect id="Rectangle_4" x="324.482" y="127.167" width="26.9273" height="12.1034" stroke="white"/>
<path id="Path 22" d="M285.582 87.3563L230.601 126.667" stroke="#19243D" stroke-linecap="round"/>
<path id="Path 22_2" d="M319.619 87.3563L374.601 126.667" stroke="#19243D" stroke-linecap="round"/>
<path id="Path 23" d="M265.51 55.4712H333.582" stroke="#19243D" stroke-linecap="round"/>
<path id="Path 23_2" d="M265.51 63.3334H302.164" stroke="#19243D" stroke-linecap="round"/>
<path id="Path 23_3" d="M265.51 70.3218H312.637" stroke="#19243D" stroke-linecap="round"/>
</g>
<rect id="Rectangle_5" x="44" y="197" width="374" height="374" rx="80" fill="#EEF3FF"/>
<g id="Plant - 1">
<path id="Path 38" fill-rule="evenodd" clip-rule="evenodd" d="M14.4439 431.218C19.8891 437.514 27.8023 441.132 36.1265 441.132C46.561 441.132 56.1713 435.463 61.2176 426.33L64.6697 420.082C71.7101 407.34 71.4048 391.783 63.8957 379.311C57.0911 368.01 56.1448 354.095 61.3797 341.986L63.2081 337.757C67.947 326.795 67.4438 314.274 61.8408 303.728L59.5311 299.381C55.4248 291.652 55.0307 282.481 58.459 274.429L59.5505 271.865C63.2385 263.202 61.6455 253.193 55.4504 246.104L55.1207 245.726C49.829 239.67 47.9815 231.338 50.2176 223.613L52.0405 217.316C54.8368 207.655 48.9117 197.636 39.0989 195.432C28.7021 193.097 18.6575 200.541 17.8669 211.167L16.5986 228.215L6.69379 252.525C3.2355 261.013 4.00388 270.638 8.76505 278.469C13.674 286.544 14.3298 296.508 10.5216 305.156L4.61119 318.579C-0.00555436 329.064 -0.212311 340.965 4.03745 351.604C7.99475 361.51 8.0977 372.54 4.32603 382.519L3.28543 385.272C-2.06954 399.44 0.766586 415.403 10.6742 426.859L14.4439 431.218Z" fill="#40C5C4"/>
<path id="Path 39" fill-rule="evenodd" clip-rule="evenodd" d="M22.7832 499.812H53.9436L64.4992 453.092H13.2397L22.7832 499.812Z" fill="#19243D"/>
<path id="Path 40" d="M38.8694 453.092L35.0427 212.666" stroke="#19243D" stroke-width="1.12"/>
</g>
<g id="Man 7">
<g id="Man - Low 7">
<g id="Group 6_2">
<path id="Path 25" fill-rule="evenodd" clip-rule="evenodd" d="M120.523 467.247L118.962 482.268L135.377 492.226C137.971 493.801 136.855 497.791 133.821 497.791L97.8567 497.791L98.9659 466.837L120.523 467.247Z" fill="#19243D"/>
<path id="Path 60" fill-rule="evenodd" clip-rule="evenodd" d="M174.434 219.437C178.7 226.09 181.291 233.677 181.984 241.55L201.863 467.247H199.061L201.863 482.306L216.491 491.032C219.574 492.871 218.22 497.606 214.63 497.537L182.485 496.917L177.56 467.247L174.434 467.281L135.044 219.437H174.434Z" fill="#19243D"/>
<path id="Path 35" fill-rule="evenodd" clip-rule="evenodd" d="M105.275 219.471L97.7092 243.594C94.9159 252.501 94.6718 262.012 97.0045 271.051L99.8962 282.256L93.4355 467.247H125.5L158.419 217.856L105.275 219.471Z" fill="#85B0FF"/>
</g>
<path id="Path 37" d="M118.178 219.437L119.048 219.505L99.6586 467.281L98.7887 467.213L118.178 219.437Z" fill="#19243D"/>
</g>
<g id="Man - Top 7">
<g id="man - body 2">
<path id="Path 56" fill-rule="evenodd" clip-rule="evenodd" d="M186.276 182.641L193.489 197.059C197.095 204.267 204.464 208.819 212.523 208.819C219.18 208.819 225.454 205.705 229.478 200.402L259.904 160.308L248.881 154.46L212.664 182.641L208.736 171.009L186.276 182.641Z" fill="#FE9C9A"/>
<path id="Path 14" fill-rule="evenodd" clip-rule="evenodd" d="M122.492 115.83L107.169 117.293C87.3542 119.184 75.0613 139.754 82.782 158.101L93.5649 183.725L95.6333 200.556C96.5173 207.75 99.8067 214.434 104.968 219.524H174.217C178.197 212.385 180.154 204.296 179.876 196.127L178.969 169.484L186.554 185.911L210.379 174.199L204.628 152.798C198.751 130.926 178.905 115.736 156.257 115.774L122.492 115.83Z" fill="#2760CB"/>
<g id="Group 22">
<path id="Mask" fill-rule="evenodd" clip-rule="evenodd" d="M122.492 115.83L107.169 117.293C87.3542 119.184 75.0613 139.754 82.782 158.101L93.5649 183.725L95.6333 200.556C96.5173 207.75 99.8067 214.434 104.968 219.524H174.217C178.197 212.385 180.154 204.296 179.876 196.127L178.969 169.484L186.554 185.911L210.379 174.199L204.628 152.798C198.751 130.926 178.905 115.736 156.257 115.774L122.492 115.83Z" fill="#2760CB"/>
<mask id="mask0_0_16" style="mask-type:alpha" maskUnits="userSpaceOnUse" x="80" y="115" width="131" height="105">
<path id="Mask_2" fill-rule="evenodd" clip-rule="evenodd" d="M122.492 115.83L107.169 117.293C87.3542 119.184 75.0613 139.754 82.782 158.101L93.5649 183.725L95.6333 200.556C96.5173 207.75 99.8067 214.434 104.968 219.524H174.217C178.197 212.385 180.154 204.296 179.876 196.127L178.969 169.484L186.554 185.911L210.379 174.199L204.628 152.798C198.751 130.926 178.905 115.736 156.257 115.774L122.492 115.83Z" fill="white"/>
</mask>
<g mask="url(#mask0_0_16)">
<path id="Path 49" fill-rule="evenodd" clip-rule="evenodd" d="M126.781 213.28C137.707 214.223 148.345 209.457 154.915 200.676L183.813 162.052L135.14 182.641H99.6851L95.0013 185.674L102.206 197.838C107.425 206.649 116.577 212.4 126.781 213.28Z" fill="#19243D"/>
<g id="Group 22_2">
<path id="Path 90" d="M118.742 113.032C118.742 113.032 124.106 182.179 124.106 226.589" stroke="#0F4DC3"/>
<path id="Path 90_2" d="M110.016 113.032C110.016 113.032 115.38 182.179 115.38 226.589" stroke="#0F4DC3"/>
<path id="Path 90_3" d="M101.289 113.032C101.289 113.032 106.653 182.179 106.653 226.589" stroke="#0F4DC3"/>
<path id="Path 90_4" d="M92.5628 113.032C92.5628 113.032 97.9267 182.179 97.9267 226.589" stroke="#0F4DC3"/>
<path id="Path 90_5" d="M83.8364 113.032C83.8364 113.032 89.2003 182.179 89.2003 226.589" stroke="#0F4DC3"/>
<path id="Path 90_6" d="M127.468 113.032C127.468 113.032 132.832 182.179 132.832 226.589" stroke="#0F4DC3"/>
<path id="Path 90_7" d="M136.195 113.032C136.195 113.032 141.559 182.179 141.559 226.589" stroke="#0F4DC3"/>
<path id="Path 90_8" d="M144.921 113.032C144.921 113.032 150.285 182.179 150.285 226.589" stroke="#0F4DC3"/>
<path id="Path 90_9" d="M153.648 113.032C153.648 113.032 159.012 182.179 159.012 226.589" stroke="#0F4DC3"/>
<path id="Path 90_10" d="M162.374 113.032C162.374 113.032 167.738 182.179 167.738 226.589" stroke="#0F4DC3"/>
<path id="Path 90_11" d="M171.101 113.032C171.101 113.032 176.464 182.179 176.464 226.589" stroke="#0F4DC3"/>
<path id="Path 90_12" d="M179.827 113.032C179.827 113.032 185.191 182.179 185.191 226.589" stroke="#0F4DC3"/>
<path id="Path 90_13" d="M188.553 113.032C188.553 113.032 193.917 182.179 193.917 226.589" stroke="#0F4DC3"/>
<path id="Path 90_14" d="M197.28 113.032C197.28 113.032 202.644 182.179 202.644 226.589" stroke="#0F4DC3"/>
</g>
</g>
</g>
<g id="Group 8">
<path id="Rectangle_6" fill-rule="evenodd" clip-rule="evenodd" d="M219.532 127.076H256.183L251.269 176.916H214.618L219.532 127.076Z" fill="#85B0FF"/>
<path id="Rectangle_7" fill-rule="evenodd" clip-rule="evenodd" d="M221.714 127.076H258.365L253.45 176.916H216.799L221.714 127.076Z" fill="#19243D"/>
<ellipse id="Oval" cx="240.257" cy="136.039" rx="2.39976" ry="2.40455" fill="white"/>
</g>
<path id="Path 55" fill-rule="evenodd" clip-rule="evenodd" d="M252.574 164.346C252.574 164.346 258.384 162.743 259.829 160.308C261.008 158.32 259.191 149.67 258.483 146.56C258.326 145.869 257.791 145.334 257.104 145.162L246.822 142.593C246.097 142.412 245.362 142.854 245.182 143.579C245.022 144.22 245.346 144.881 245.951 145.146C248.356 146.196 254.028 148.686 253.4 148.529C252.806 148.381 247.168 147.903 244.372 147.672C243.474 147.598 242.655 148.186 242.438 149.061C242.192 150.047 242.792 151.046 243.779 151.293L252.19 153.394L245.958 154.57C244.944 154.761 244.319 155.787 244.612 156.776C244.81 157.441 245.384 157.925 246.073 158.008L254.832 159.06L248.159 161.626C247.421 161.91 247.024 162.711 247.244 163.47C247.442 164.15 248.083 164.604 248.79 164.563C250.268 164.478 252.574 164.346 252.574 164.346Z" fill="#FE9C9A"/>
<path id="Path 57" fill-rule="evenodd" clip-rule="evenodd" d="M99.6852 182.641L122.156 167.735L128.683 175.608L185.761 146.817C186.714 146.336 187.714 145.957 188.746 145.685L205.912 141.158C206.925 140.891 207.916 141.654 207.916 142.702C207.916 143.307 207.574 143.86 207.032 144.13L198.273 148.499V153.2C198.273 157.107 195.966 160.645 192.392 162.222L191.021 162.827C188.652 163.872 185.906 163.577 183.813 162.052L147.683 197.258C143.924 200.921 139.068 203.252 133.858 203.893C126.477 204.802 119.092 202.24 113.86 196.956L99.6852 182.641Z" fill="#FE9C9A"/>
</g>
<g id="Man - face 1">
<path id="Path 5" fill-rule="evenodd" clip-rule="evenodd" d="M160.26 73.5163L159.677 96.8593C159.534 102.583 154.852 107.149 149.127 107.149V115.245C149.127 115.245 155.565 126.691 147.743 129.916C139.92 133.141 128.683 117.781 128.683 117.781L131.742 77.0223L147.743 68.808L160.26 73.5163Z" fill="#FE9C9A"/>
<path id="Path 12" fill-rule="evenodd" clip-rule="evenodd" d="M155.871 95.1332L150.977 94.1973C150.977 94.1973 151.755 97.3395 153.47 97.3093C155.185 97.2792 155.871 95.1332 155.871 95.1332Z" fill="white"/>
<path id="Path 10" d="M157.176 83.6266C157.158 83.4338 157.298 83.2628 157.49 83.2446C157.681 83.2264 157.851 83.368 157.869 83.5608L158.642 91.8095H155.506C155.313 91.8095 155.157 91.6526 155.157 91.4589C155.157 91.2653 155.313 91.1083 155.506 91.1083H157.877L157.176 83.6266Z" fill="#19243D"/>
<path id="Rectangle_8" fill-rule="evenodd" clip-rule="evenodd" d="M151.126 79.2111C151.143 78.7272 151.549 78.3485 152.033 78.3656L154.459 78.4508C154.942 78.4678 155.321 78.8735 155.304 79.3572C155.287 79.8411 154.881 80.2197 154.397 80.2027L151.971 80.1175C151.488 80.1005 151.109 79.6947 151.126 79.2111Z" fill="#19243D"/>
<path id="Rectangle_9" fill-rule="evenodd" clip-rule="evenodd" d="M157.745 79.5617C157.762 79.0778 158.168 78.6991 158.652 78.7161L161.077 78.8014C161.561 78.8184 161.939 79.2241 161.922 79.7077C161.906 80.1917 161.5 80.5703 161.016 80.5533L158.59 80.468C158.106 80.451 157.728 80.0453 157.745 79.5617Z" fill="#19243D"/>
<path id="Path 11" d="M139.323 81.4779C139.323 81.4779 137.815 82.0385 138.871 84.2208" stroke="#19243D" stroke-width="0.8" stroke-linecap="round"/>
<path id="Oval_2" fill-rule="evenodd" clip-rule="evenodd" d="M145.576 82.1912C145.576 85.0957 147.915 87.4502 150.801 87.4502C153.687 87.4502 156.026 85.0957 156.026 82.1912C156.026 79.2868 153.687 76.9323 150.801 76.9323C147.915 76.9323 145.576 79.2868 145.576 82.1912ZM155.33 82.1912C155.33 84.7084 153.302 86.749 150.801 86.749C148.3 86.749 146.273 84.7084 146.273 82.1912C146.273 79.674 148.3 77.6334 150.801 77.6334C153.302 77.6334 155.33 79.674 155.33 82.1912Z" fill="white"/>
<g id="Group 4">
<path id="Oval_3" fill-rule="evenodd" clip-rule="evenodd" d="M157.944 82.5419C157.944 85.4464 160.284 87.8009 163.169 87.8009C166.055 87.8009 168.395 85.4464 168.395 82.5419C168.395 79.6375 166.055 77.283 163.169 77.283C160.284 77.283 157.944 79.6375 157.944 82.5419ZM167.698 82.5419C167.698 85.0591 165.67 87.0997 163.169 87.0997C160.668 87.0997 158.641 85.0591 158.641 82.5419C158.641 80.0247 160.668 77.9842 163.169 77.9842C165.67 77.9842 167.698 80.0247 167.698 82.5419Z" fill="white"/>
<path id="Path" d="M159.763 86.5301C159.617 86.4038 159.601 86.1825 159.726 86.0357C159.852 85.8889 160.072 85.8723 160.218 85.9985C161.033 86.7049 162.071 87.0997 163.169 87.0997C165.67 87.0997 167.698 85.0591 167.698 82.5419C167.698 80.0247 165.67 77.9842 163.169 77.9842C162.976 77.9842 162.785 77.9963 162.596 78.0204C162.405 78.0446 162.23 77.9086 162.206 77.7165C162.182 77.5244 162.317 77.349 162.508 77.3247C162.726 77.297 162.947 77.283 163.169 77.283C166.055 77.283 168.395 79.6375 168.395 82.5419C168.395 85.4464 166.055 87.8009 163.169 87.8009C161.902 87.8009 160.704 87.3449 159.763 86.5301Z" fill="#19243D"/>
</g>
<ellipse id="Oval_4" cx="159.804" cy="82.1913" rx="0.696706" ry="0.701196" fill="#19243D"/>
<ellipse id="Oval_5" cx="152.574" cy="82.1913" rx="0.696706" ry="0.701196" fill="#19243D"/>
<path id="Path 6" fill-rule="evenodd" clip-rule="evenodd" d="M130.305 97.5603L138.463 86.0159L136.603 83.9387C135.717 82.9498 135.603 81.4904 136.324 80.3757C137.088 79.1938 138.583 78.7184 139.889 79.2412L140.343 79.4226C141.179 79.7571 141.783 80.4992 141.941 81.3857L142.514 84.5945C142.609 85.1297 143.074 85.5194 143.618 85.5194C144.209 85.5194 144.7 85.062 144.752 84.473C144.913 82.6383 145.316 78.9746 146.001 78.3413C146.921 77.49 149.176 78.1312 149.618 72.3348C152.674 74.3086 160.26 73.5163 160.26 73.5163L160.059 80.2796C160.059 80.2796 165.663 74.8204 165.663 69.6744C165.663 64.5284 161.166 66.1869 161.166 66.1869C161.166 66.1869 163.079 56.6209 156.746 58.2323C150.413 59.8437 139.131 57.4003 131.742 66.1869C123.201 68.4642 124.65 72.7249 125.534 77.074C126.419 81.4231 130.305 97.5603 130.305 97.5603Z" fill="#19243D"/>
<path id="Path 7" fill-rule="evenodd" clip-rule="evenodd" d="M149.127 107.149H139.575L149.127 111.348V107.149Z" fill="#19243D"/>
</g>
</g>
</g>
<g id="Path 121">
<rect id="Mask_3" x="332" y="519" width="69" height="72" rx="34.5" fill="#40C5C4"/>
<mask id="mask1_0_16" style="mask-type:alpha" maskUnits="userSpaceOnUse" x="332" y="519" width="69" height="72">
<rect id="Mask_4" x="332" y="519" width="69" height="72" rx="34.5" fill="white"/>
</mask>
<g mask="url(#mask1_0_16)">
<path id="Path 121_2" d="M327.346 536.135C327.346 536.135 358.379 527.955 364.087 530.682C369.795 533.408 345.717 537.058 345.717 543.641C345.717 550.225 369.634 545.113 392.625 538.781C415.617 532.45 425.455 543.106 408.777 551.469C392.1 559.832 341.26 583.108 327.346 579.186C313.432 575.264 356.114 565.672 369.795 561.809C383.475 557.947 374.855 551.469 364.604 551.469C354.354 551.469 321.936 556.885 313.432 553.386C304.928 549.886 281.147 588.056 313.432 588.056C345.717 588.056 408.896 571.767 421.902 559.028C434.907 546.289 426.073 582.719 359.451 594" stroke="white"/>
</g>
</g>
<g id="Woman 9">
<g id="Woman - Low 9">
<g id="Path 62">
<path id="Path 63" fill-rule="evenodd" clip-rule="evenodd" d="M316.429 384.293C316.429 384.293 326.469 364.752 331.001 359.403C334.05 355.803 343.742 348.502 345.724 352.897C348.795 359.71 332.699 358.353 337.846 369.219C342.993 380.086 328.492 392.08 328.492 392.08L316.429 384.293Z" stroke="white" stroke-width="0.9"/>
</g>
<g id="Group 15">
<path id="Path 85" fill-rule="evenodd" clip-rule="evenodd" d="M445.681 396.827C445.681 396.827 455.818 403.356 445.096 415.015C434.375 426.674 418.8 415.379 410.46 430.875C402.119 446.37 395.823 458.704 383.686 458.873L387.564 412.29L424.469 387.757L445.681 396.827Z" fill="#85B0FF"/>
<g id="Group 5">
<path id="Path 68" fill-rule="evenodd" clip-rule="evenodd" d="M447.08 423.568C447.08 423.568 448.75 429.806 456.083 436.803C463.417 443.8 470.352 450.339 470.352 450.339L473.344 447.738L465.251 438.429C465.251 438.429 479.38 442.491 482.254 439.992C484.047 438.434 487.891 435.093 490.529 432.799C492.045 431.481 492.205 429.184 490.888 427.668C490.375 427.079 489.686 426.67 488.923 426.502L469.732 422.285L447.08 423.568Z" fill="#19243D"/>
<path id="Path 67" fill-rule="evenodd" clip-rule="evenodd" d="M456.363 406.337C471.932 420.496 480.467 425.922 484.86 425.735C489.254 425.548 483.095 434.584 473.742 432.632C464.389 430.679 451.943 430.727 444.493 422.156C437.042 413.585 413.539 398.026 399.849 387.457C389.438 379.42 400.538 368.381 421.925 378.383C428.66 381.533 452.634 402.946 456.363 406.337Z" fill="#FF555D"/>
</g>
<g id="Group 5_2">
<path id="Path 68_2" fill-rule="evenodd" clip-rule="evenodd" d="M394.154 460.513C394.154 460.513 392.48 466.75 395.333 476.477C398.185 486.203 400.922 495.333 400.922 495.333L404.813 494.577L402.459 482.468C402.459 482.468 412.665 493.051 416.403 492.324C418.735 491.871 423.734 490.899 427.166 490.232C429.138 489.849 430.425 487.94 430.042 485.968C429.893 485.201 429.501 484.502 428.924 483.976L414.413 470.728L394.154 460.513Z" fill="#19243D"/>
<path id="Path 67_2" fill-rule="evenodd" clip-rule="evenodd" d="M410.808 450.232C417.212 470.279 421.89 479.245 425.788 481.28C429.687 483.315 419.835 488.061 412.711 481.694C405.588 475.326 394.786 469.144 392.619 457.997C390.452 446.849 377.877 421.623 371.306 405.625C366.484 393.887 377.939 369.8 391.5 388.514C396.421 395.306 409.103 444.895 410.808 450.232Z" fill="#FF555D"/>
</g>
<path id="Path 84" fill-rule="evenodd" clip-rule="evenodd" d="M317.575 314.048L325.324 316.566C326.627 316.989 327.901 317.439 329.175 317.943C337.14 321.094 368.403 333.831 388.533 347.332C411.752 362.906 447.632 397.925 447.632 397.925C447.632 397.925 425.508 388.316 412.675 403.675C399.843 419.034 397.586 450.74 383.686 458.873L354.111 404.105L284.136 374.202C268.962 367.718 259.328 352.581 259.877 336.089L260.4 320.382L317.575 314.048Z" fill="#19243D"/>
<path id="Path 86" d="M354.182 404.223L355.432 387.464" stroke="white" stroke-linecap="round"/>
</g>
</g>
<g id="Woman - Top 9">
<g id="Woman - body 2">
<path id="Path 56_2" fill-rule="evenodd" clip-rule="evenodd" d="M318.504 279.341L326.933 291.104C331.16 297.003 338.354 300.011 345.522 298.876C351.44 297.939 356.58 294.289 359.416 289.011L380.828 249.154L370.205 245.517L341.966 275.625L335.175 267.19L318.504 279.341Z" fill="#FF555D"/>
<path id="Path 14_2" fill-rule="evenodd" clip-rule="evenodd" d="M261.818 230.967L251.573 235.162C238.268 240.61 231.717 255.659 236.795 269.11L246.663 295.246L250.367 299.79C255.92 306.6 259.358 314.887 260.256 323.628L260.282 323.882L318.612 314.643L312.098 290.787L313.355 290.28C317.41 288.642 319.798 284.421 319.114 280.101L340.108 272.479L325.169 249.777C316.322 236.333 300.969 228.637 284.904 229.593L261.818 230.967Z" fill="#2760CB"/>
<g id="Path 49 + Path 11 + Path 88 + Path 88 + Path 88 + Path 88 + Path 88 + Path 88 + Path 88 + Path 88 + Oval + Oval + Oval + Oval + Oval + Oval Mask">
<path id="Mask_5" fill-rule="evenodd" clip-rule="evenodd" d="M261.818 230.967L251.573 235.162C238.268 240.61 231.717 255.659 236.795 269.11L246.663 295.246L250.367 299.79C255.92 306.6 259.358 314.887 260.256 323.628L260.282 323.882L318.612 314.643L312.098 290.787L313.355 290.28C317.41 288.642 319.798 284.421 319.114 280.101L340.108 272.479L325.169 249.777C316.322 236.333 300.969 228.637 284.904 229.593L261.818 230.967Z" fill="#2760CB"/>
<mask id="mask2_0_16" style="mask-type:alpha" maskUnits="userSpaceOnUse" x="235" y="229" width="106" height="95">
<path id="Mask_6" fill-rule="evenodd" clip-rule="evenodd" d="M261.818 230.967L251.573 235.162C238.268 240.61 231.717 255.659 236.795 269.11L246.663 295.246L250.367 299.79C255.92 306.6 259.358 314.887 260.256 323.628L260.282 323.882L318.612 314.643L312.098 290.787L313.355 290.28C317.41 288.642 319.798 284.421 319.114 280.101L340.108 272.479L325.169 249.777C316.322 236.333 300.969 228.637 284.904 229.593L261.818 230.967Z" fill="white"/>
</mask>
<g mask="url(#mask2_0_16)">
<path id="Path 49_2" fill-rule="evenodd" clip-rule="evenodd" d="M278.802 315.269C288.648 314.567 297.436 308.836 302.048 300.108L322.306 261.777L281.924 286.902L250.401 291.895L246.663 295.246L254.763 305.008C260.652 312.105 269.603 315.926 278.802 315.269Z" fill="#19243D"/>
<path id="Path 11_2" d="M270.008 276.728L259.389 265.995" stroke="white" stroke-linecap="round"/>
<path id="Path 88" fill-rule="evenodd" clip-rule="evenodd" d="M237.659 274.705C236.926 274.97 236.185 274.329 236.341 273.565L237.555 267.6C237.711 266.831 238.652 266.534 239.222 267.073L243.453 271.077C243.994 271.59 243.806 272.492 243.105 272.745L237.659 274.705Z" stroke="white"/>
<path id="Path 88_2" fill-rule="evenodd" clip-rule="evenodd" d="M248.989 241.54C248.255 241.804 247.515 241.164 247.67 240.399L248.884 234.435C249.041 233.666 249.982 233.368 250.552 233.908L254.783 237.912C255.324 238.424 255.135 239.327 254.434 239.579L248.989 241.54Z" stroke="white"/>
<path id="Path 88_3" fill-rule="evenodd" clip-rule="evenodd" d="M271.939 261.269C271.24 260.925 271.186 259.948 271.844 259.529L278.034 255.585C278.695 255.163 279.563 255.633 279.571 256.418L279.646 263.449C279.654 264.194 278.872 264.686 278.204 264.356L271.939 261.269Z" stroke="white"/>
<path id="Path 88_4" fill-rule="evenodd" clip-rule="evenodd" d="M304.281 252.38C303.772 251.789 304.105 250.869 304.874 250.74L312.112 249.532C312.886 249.402 313.5 250.173 313.201 250.899L310.526 257.399C310.242 258.088 309.331 258.236 308.844 257.671L304.281 252.38Z" stroke="white"/>
<path id="Path 88_5" fill-rule="evenodd" clip-rule="evenodd" d="M274.853 315.228C274.154 314.883 274.1 313.907 274.758 313.488L280.948 309.544C281.609 309.122 282.476 309.592 282.485 310.377L282.559 317.407C282.567 318.153 281.786 318.645 281.117 318.315L274.853 315.228Z" stroke="white"/>
<path id="Path 88_6" fill-rule="evenodd" clip-rule="evenodd" d="M307.195 306.339C306.686 305.748 307.019 304.828 307.788 304.699L315.026 303.49C315.799 303.361 316.414 304.132 316.115 304.857L313.44 311.358C313.156 312.047 312.244 312.195 311.757 311.63L307.195 306.339Z" stroke="white"/>
<path id="Path 88_7" fill-rule="evenodd" clip-rule="evenodd" d="M297.516 274.208C296.817 273.864 296.763 272.887 297.421 272.468L303.611 268.524C304.272 268.102 305.14 268.572 305.148 269.357L305.223 276.388C305.231 277.133 304.449 277.625 303.781 277.295L297.516 274.208Z" stroke="white"/>
<path id="Path 88_8" fill-rule="evenodd" clip-rule="evenodd" d="M329.858 265.319C329.349 264.728 329.682 263.808 330.451 263.679L337.689 262.471C338.462 262.341 339.077 263.112 338.778 263.838L336.103 270.338C335.819 271.027 334.908 271.175 334.421 270.61L329.858 265.319Z" stroke="white"/>
<ellipse id="Oval_6" cx="257.411" cy="260.096" rx="2.61572" ry="2.6186" transform="rotate(-9 257.411 260.096)" fill="#E5E9F3"/>
<ellipse id="Oval_7" cx="238.431" cy="246.127" rx="2.61572" ry="2.6186" transform="rotate(-9 238.431 246.127)" fill="#E5E9F3"/>
<ellipse id="Oval_8" cx="288.135" cy="271.448" rx="2.61572" ry="2.6186" transform="rotate(-9 288.135 271.448)" fill="#E5E9F3"/>
<ellipse id="Oval_9" cx="261.982" cy="301.121" rx="2.61572" ry="2.6186" transform="rotate(-9 261.982 301.121)" fill="#E5E9F3"/>
<ellipse id="Oval_10" cx="300.347" cy="301.127" rx="2.61572" ry="2.6186" transform="rotate(-9 300.347 301.127)" fill="#E5E9F3"/>
<ellipse id="Oval_11" cx="295.978" cy="244.392" rx="2.61572" ry="2.6186" transform="rotate(-9 295.978 244.392)" fill="#E5E9F3"/>
</g>
</g>
<g id="Group 8_2">
<path id="Rectangle_10" fill-rule="evenodd" clip-rule="evenodd" d="M340.263 225.348L372.849 220.187L375.485 265.108L342.898 270.27L340.263 225.348Z" fill="#85B0FF"/>
<path id="Rectangle_11" fill-rule="evenodd" clip-rule="evenodd" d="M342.202 225.041L374.789 219.88L377.424 264.801L344.838 269.962L342.202 225.041Z" fill="#19243D"/>
<ellipse id="Oval_12" cx="359.949" cy="230.383" rx="2.16023" ry="2.16047" transform="rotate(-9 359.949 230.383)" fill="white"/>
</g>
<path id="Path 55_2" fill-rule="evenodd" clip-rule="evenodd" d="M374.879 253.769C374.879 253.769 379.819 251.529 380.761 249.165C381.53 247.235 378.7 239.819 377.634 237.156C377.396 236.564 376.844 236.163 376.209 236.107L366.704 235.275C366.035 235.217 365.446 235.712 365.387 236.38C365.335 236.972 365.716 237.514 366.291 237.663C368.577 238.257 373.97 239.668 373.39 239.617C372.84 239.569 367.756 239.939 365.239 240.128C364.432 240.188 363.789 240.825 363.718 241.631C363.639 242.542 364.312 243.344 365.222 243.424L372.998 244.104L367.62 246.026C366.747 246.338 366.336 247.337 366.736 248.173C367.005 248.736 367.583 249.084 368.206 249.061L376.144 248.761L370.57 251.978C369.955 252.333 369.714 253.101 370.017 253.743C370.289 254.319 370.921 254.631 371.542 254.496C372.844 254.212 374.879 253.769 374.879 253.769Z" fill="#FF555D"/>
<path id="Path 57_2" fill-rule="evenodd" clip-rule="evenodd" d="M250.401 291.895L268.285 275.503L275.195 281.57L321.897 247.982C322.676 247.422 323.511 246.945 324.389 246.558L339.021 240.121C339.882 239.742 340.869 240.281 341.016 241.21C341.101 241.747 340.875 242.287 340.431 242.603L333.256 247.713L333.915 251.869C334.465 255.346 332.91 258.819 329.951 260.724L328.822 261.45C326.863 262.711 324.381 262.836 322.306 261.777L295.135 298.101C292.305 301.886 288.313 304.64 283.77 305.943C277.336 307.789 270.409 306.553 265.009 302.597L250.401 291.895Z" fill="#FF555D"/>
</g>
<g id="Woman - face 1">
<path id="Path 8" fill-rule="evenodd" clip-rule="evenodd" d="M288.221 194.97L293.526 229.321L277.52 230.523L273.558 200.54L288.221 194.97Z" fill="#19243D"/>
<path id="Path 5_2" fill-rule="evenodd" clip-rule="evenodd" d="M286.199 193.355L288.904 213.799C289.589 218.972 286.025 223.748 280.871 224.564L282.001 231.694C282.001 231.694 289.392 240.858 282.802 244.813C276.211 248.769 263.955 236.842 263.955 236.842L264.414 199.89L274.277 190.993L286.199 193.355Z" fill="#FF555D"/>
<path id="Path 70" d="M268.179 202.564C268.179 202.564 266.868 203.97 268.588 205.15" stroke="#19243D" stroke-linecap="round"/>
<path id="Path 12_2" fill-rule="evenodd" clip-rule="evenodd" d="M285.377 212.828L280.899 212.696C280.899 212.696 282.027 215.343 283.546 215.076C285.065 214.808 285.377 212.828 285.377 212.828Z" fill="white"/>
<path id="Path 10_2" d="M285.198 201.991C285.153 201.82 285.267 201.643 285.454 201.596C285.641 201.55 285.829 201.651 285.875 201.823L287.822 209.174L284.722 209.665C284.531 209.695 284.355 209.577 284.327 209.402C284.299 209.226 284.431 209.06 284.621 209.03L286.965 208.658L285.198 201.991Z" fill="#19243D"/>
<path id="Rectangle_12" fill-rule="evenodd" clip-rule="evenodd" d="M278.949 199.525C278.897 199.098 279.2 198.71 279.627 198.657L281.813 198.389C282.239 198.336 282.628 198.64 282.68 199.067C282.733 199.493 282.429 199.882 282.003 199.934L279.817 200.203C279.39 200.256 279.001 199.952 278.949 199.525Z" fill="#19243D"/>
<path id="Rectangle_13" fill-rule="evenodd" clip-rule="evenodd" d="M284.877 198.901C284.825 198.475 285.128 198.086 285.555 198.034L287.741 197.765C288.167 197.712 288.556 198.016 288.608 198.443C288.661 198.87 288.357 199.258 287.931 199.311L285.745 199.579C285.318 199.632 284.929 199.328 284.877 198.901Z" fill="#19243D"/>
<ellipse id="Oval_13" cx="287.454" cy="201.278" rx="0.871907" ry="0.872868" transform="rotate(-9 287.454 201.278)" fill="#19243D"/>
<ellipse id="Oval_14" cx="281.426" cy="202.233" rx="0.871907" ry="0.872868" transform="rotate(-9 281.426 202.233)" fill="#19243D"/>
<path id="Path 6_2" fill-rule="evenodd" clip-rule="evenodd" d="M272.204 233.001C272.204 233.001 271.317 219.025 271.174 215.382C271.032 211.739 268.831 206.969 268.831 206.969L266.945 205.444C265.989 204.67 265.672 203.351 266.174 202.227C266.677 201.101 267.876 200.456 269.093 200.657L271.868 201.114C272.81 201.27 273.776 201.216 274.664 200.866C277.135 199.892 282.267 197.399 284.126 192.929C285.041 194.533 286.823 195.332 286.823 195.332L287.201 198.873C287.201 198.873 291.661 194.394 290.942 189.856C290.223 185.317 285.202 185.099 285.202 185.099C285.202 185.099 284.622 180.842 279.866 180.722C275.601 180.615 264.554 178.842 256.129 190.407C250.725 197.824 245.989 237.585 245.989 237.585L252.819 236.503C252.819 236.503 254.728 247.998 263.58 246.596C272.433 245.193 272.204 233.001 272.204 233.001Z" fill="#19243D"/>
<path id="Path 7_2" fill-rule="evenodd" clip-rule="evenodd" d="M281.419 224.483L272.783 225.695L281.941 227.78L281.419 224.483Z" fill="#19243D"/>
</g>
</g>
</g>
<g id="paper plane">
<path id="Path 116" fill-rule="evenodd" clip-rule="evenodd" d="M450.282 234.715L494.201 180.807L457.054 217.894L450.282 234.715Z" fill="#2760CB"/>
<path id="Path 115" fill-rule="evenodd" clip-rule="evenodd" d="M455.093 215.426L450.282 234.715L458.535 218.783L492.785 181.887L455.093 215.426Z" fill="#85B0FF"/>
<path id="Path 114" fill-rule="evenodd" clip-rule="evenodd" d="M427.601 207.644L496.217 178L477.759 242.684L458.535 218.783L490.37 184.099L455.093 215.426L427.601 207.644Z" fill="#E5E9F3"/>
</g>
<path id="Path 29" d="M445.477 220.187C445.477 220.187 417.475 257.513 382.155 276.728" stroke="#2760CB"/>
<path id="Path 30" d="M459.863 239.682C459.863 239.682 444.752 283.121 413.453 312.836" stroke="#2760CB"/>
<path id="Path 30 Copy" d="M446.416 244.782C446.416 244.782 403.293 299.436 366.899 322.633" stroke="#2760CB"/>
</g>
</svg>
